<?xml version="1.0" standalone="no"?>
<!DOCTYPE svg PUBLIC "-//W3C//DTD SVG 20010904//EN"
 "http://www.w3.org/TR/2001/REC-SVG-20010904/DTD/svg10.dtd">
<svg version="1.0" xmlns="http://www.w3.org/2000/svg"
 width="700.000000pt" height="700.000000pt" viewBox="0 0 700.000000 700.000000"
 preserveAspectRatio="xMidYMid meet">
<metadata>
Created by potrace 1.14, written by Peter Selinger 2001-2017
</metadata>
<g transform="translate(0.000000,700.000000) scale(0.100000,-0.100000)"
fill="#000000" stroke="none">
<path d="M4037 6754 c-1 -1 -117 -4 -257 -8 -248 -5 -284 -7 -400 -20 -55 -7
-272 -41 -320 -51 -14 -3 -41 -8 -60 -11 -67 -11 -327 -86 -390 -111 -8 -3
-19 -7 -25 -8 -34 -9 -191 -77 -314 -136 -345 -168 -664 -401 -976 -714 -278
-278 -451 -489 -685 -835 l-98 -145 24 -45 c13 -25 28 -52 34 -60 29 -46 120
-202 120 -205 0 -3 13 -26 29 -52 15 -27 87 -149 159 -273 575 -995 752 -1301
775 -1340 15 -25 34 -60 44 -77 13 -25 19 -30 30 -22 7 6 13 15 13 20 0 18
205 341 245 385 5 7 19 24 30 40 11 15 31 42 45 58 14 17 28 36 32 41 74 103
342 387 503 535 127 116 322 269 455 356 41 27 77 51 80 54 3 3 16 12 30 19
14 8 63 37 110 64 119 69 279 149 385 193 100 41 292 111 327 119 13 2 85 20
161 39 123 31 264 55 412 71 52 5 156 10 450 20 94 3 222 8 285 10 63 2 194 7
290 10 96 3 213 8 260 10 47 2 182 7 300 11 118 4 238 8 265 9 28 2 80 3 117
4 l68 1 -19 33 c-15 26 -213 358 -620 1037 -11 19 -30 51 -41 70 -11 19 -26
44 -33 55 -17 27 -54 88 -287 480 -111 187 -204 342 -206 343 -9 11 -1335 36
-1347 26z"/>
<path d="M5290 4401 c0 -15 -77 -146 -153 -261 -47 -70 -175 -249 -187 -260
-3 -3 -25 -30 -50 -60 -186 -231 -429 -471 -699 -690 -77 -62 -285 -206 -392
-270 -86 -52 -331 -182 -349 -186 -3 0 -27 -11 -55 -23 -151 -69 -409 -154
-561 -186 -43 -9 -88 -19 -99 -21 -11 -2 -36 -7 -55 -9 -19 -3 -44 -8 -55 -10
-18 -4 -91 -13 -170 -20 -51 -5 -243 -15 -410 -20 -88 -3 -225 -8 -305 -10
-190 -6 -415 -14 -570 -20 -69 -3 -199 -7 -290 -10 -290 -9 -454 -16 -457 -19
-2 -1 14 -31 35 -67 344 -576 459 -769 473 -794 9 -16 105 -178 213 -358 108
-181 196 -332 196 -338 0 -5 5 -9 10 -9 6 0 10 -4 10 -9 0 -5 56 -103 125
-217 68 -114 126 -212 128 -218 2 -5 23 -11 48 -12 241 -13 301 -16 349 -19
397 -26 1253 -27 1410 -1 22 4 85 12 175 21 65 7 252 41 330 59 11 2 51 12 89
21 105 25 377 117 500 170 267 114 528 263 766 438 310 228 632 545 901 887
123 156 309 422 309 442 0 5 -18 38 -40 74 -22 36 -40 67 -40 68 0 2 -52 93
-198 346 -30 52 -63 110 -73 128 -20 33 -45 77 -77 135 -156 272 -378 658
-393 679 -10 15 -19 30 -19 32 0 3 -18 35 -40 71 -22 36 -40 68 -40 70 0 3
-10 22 -23 43 -13 20 -37 62 -54 92 -77 138 -187 326 -199 340 -11 11 -14 11
-14 1z"/>
</g>
</svg>
